<svg width="107" height="106" viewBox="0 0 107 106" fill="none" xmlns="http://www.w3.org/2000/svg">
<rect width="107" height="106" fill="#EC1548"/>
<path d="M31.476 24.138C31.764 24.294 31.908 24.534 31.908 24.858C31.908 25.074 31.836 25.272 31.692 25.452C31.548 25.644 31.35 25.74 31.098 25.74C30.93 25.74 30.768 25.698 30.612 25.614C29.868 25.194 29.064 24.984 28.2 24.984C27.3 24.984 26.502 25.182 25.806 25.578C25.122 25.974 24.588 26.532 24.204 27.252C23.82 27.96 23.628 28.776 23.628 29.7C23.628 30.696 23.826 31.554 24.222 32.274C24.618 32.994 25.164 33.546 25.86 33.93C26.556 34.302 27.336 34.488 28.2 34.488C29.088 34.488 29.892 34.272 30.612 33.84C30.756 33.768 30.912 33.732 31.08 33.732C31.344 33.732 31.554 33.834 31.71 34.038C31.854 34.218 31.926 34.41 31.926 34.614C31.926 34.758 31.884 34.896 31.8 35.028C31.728 35.148 31.626 35.244 31.494 35.316C31.026 35.58 30.498 35.79 29.91 35.946C29.334 36.102 28.764 36.18 28.2 36.18C27.036 36.18 25.962 35.922 24.978 35.406C24.006 34.89 23.226 34.14 22.638 33.156C22.062 32.172 21.774 31.02 21.774 29.7C21.774 28.488 22.05 27.396 22.602 26.424C23.166 25.44 23.934 24.672 24.906 24.12C25.89 23.556 26.988 23.274 28.2 23.274C29.364 23.274 30.456 23.562 31.476 24.138ZM42.6845 31.284C42.6845 32.22 42.4745 33.06 42.0545 33.804C41.6345 34.548 41.0585 35.13 40.3265 35.55C39.6065 35.97 38.8085 36.18 37.9325 36.18C37.0565 36.18 36.2525 35.97 35.5205 35.55C34.8005 35.13 34.2305 34.548 33.8105 33.804C33.3905 33.06 33.1805 32.22 33.1805 31.284C33.1805 30.348 33.3905 29.502 33.8105 28.746C34.2305 27.99 34.8005 27.402 35.5205 26.982C36.2525 26.562 37.0565 26.352 37.9325 26.352C38.8085 26.352 39.6065 26.562 40.3265 26.982C41.0585 27.402 41.6345 27.99 42.0545 28.746C42.4745 29.502 42.6845 30.348 42.6845 31.284ZM40.9745 31.284C40.9745 30.636 40.8365 30.06 40.5605 29.556C40.2965 29.04 39.9305 28.644 39.4625 28.368C39.0065 28.08 38.4965 27.936 37.9325 27.936C37.3685 27.936 36.8525 28.08 36.3845 28.368C35.9285 28.644 35.5625 29.04 35.2865 29.556C35.0225 30.06 34.8905 30.636 34.8905 31.284C34.8905 31.92 35.0225 32.49 35.2865 32.994C35.5625 33.498 35.9285 33.894 36.3845 34.182C36.8525 34.458 37.3685 34.596 37.9325 34.596C38.4965 34.596 39.0065 34.458 39.4625 34.182C39.9305 33.894 40.2965 33.498 40.5605 32.994C40.8365 32.49 40.9745 31.92 40.9745 31.284ZM48.7765 26.352C49.7245 26.352 50.5105 26.502 51.1345 26.802C51.7705 27.102 52.0885 27.486 52.0885 27.954C52.0885 28.158 52.0225 28.344 51.8905 28.512C51.7585 28.668 51.5905 28.746 51.3865 28.746C51.2305 28.746 51.1045 28.722 51.0085 28.674C50.9245 28.626 50.8045 28.548 50.6485 28.44C50.5765 28.368 50.4625 28.284 50.3065 28.188C50.1625 28.116 49.9585 28.056 49.6945 28.008C49.4305 27.96 49.1905 27.936 48.9745 27.936C48.3505 27.936 47.7985 28.08 47.3185 28.368C46.8385 28.656 46.4665 29.058 46.2025 29.574C45.9385 30.078 45.8065 30.642 45.8065 31.266C45.8065 31.902 45.9325 32.472 46.1845 32.976C46.4485 33.48 46.8145 33.876 47.2825 34.164C47.7505 34.452 48.2845 34.596 48.8845 34.596C49.5085 34.596 50.0125 34.5 50.3965 34.308C50.4805 34.26 50.5945 34.182 50.7385 34.074C50.8585 33.978 50.9605 33.906 51.0445 33.858C51.1405 33.81 51.2545 33.786 51.3865 33.786C51.6265 33.786 51.8125 33.864 51.9445 34.02C52.0885 34.164 52.1605 34.356 52.1605 34.596C52.1605 34.848 51.9985 35.1 51.6745 35.352C51.3625 35.592 50.9365 35.79 50.3965 35.946C49.8685 36.102 49.2985 36.18 48.6865 36.18C47.7745 36.18 46.9705 35.97 46.2745 35.55C45.5785 35.118 45.0385 34.53 44.6545 33.786C44.2825 33.03 44.0965 32.19 44.0965 31.266C44.0965 30.342 44.2945 29.508 44.6905 28.764C45.0865 28.008 45.6385 27.42 46.3465 27C47.0545 26.568 47.8645 26.352 48.7765 26.352ZM58.6166 26.406C60.7286 26.406 61.7846 27.714 61.7846 30.33V35.136C61.7846 35.376 61.7006 35.58 61.5326 35.748C61.3766 35.916 61.1726 36 60.9206 36C60.6806 36 60.4766 35.916 60.3086 35.748C60.1526 35.58 60.0746 35.376 60.0746 35.136V30.33C60.0746 28.77 59.4146 27.99 58.0946 27.99C57.3866 27.99 56.7986 28.218 56.3306 28.674C55.8626 29.118 55.6286 29.67 55.6286 30.33V35.136C55.6286 35.376 55.5446 35.58 55.3766 35.748C55.2206 35.916 55.0166 36 54.7646 36C54.5126 36 54.3086 35.922 54.1526 35.766C53.9966 35.598 53.9186 35.388 53.9186 35.136V23.544C53.9186 23.304 53.9966 23.1 54.1526 22.932C54.3206 22.764 54.5246 22.68 54.7646 22.68C55.0166 22.68 55.2206 22.764 55.3766 22.932C55.5446 23.1 55.6286 23.304 55.6286 23.544V28.098C55.9286 27.63 56.3486 27.234 56.8886 26.91C57.4286 26.574 58.0046 26.406 58.6166 26.406ZM65.9625 35.136C65.9625 35.376 65.8785 35.58 65.7105 35.748C65.5545 35.916 65.3505 36 65.0985 36C64.8585 36 64.6545 35.916 64.4865 35.748C64.3305 35.58 64.2525 35.376 64.2525 35.136V27.342C64.2525 27.102 64.3305 26.898 64.4865 26.73C64.6545 26.562 64.8585 26.478 65.0985 26.478C65.3505 26.478 65.5545 26.562 65.7105 26.73C65.8785 26.898 65.9625 27.102 65.9625 27.342V35.136ZM65.0985 25.29C64.7505 25.29 64.4985 25.23 64.3425 25.11C64.1985 24.978 64.1265 24.774 64.1265 24.498V24.21C64.1265 23.922 64.2045 23.718 64.3605 23.598C64.5285 23.478 64.7805 23.418 65.1165 23.418C65.4525 23.418 65.6925 23.484 65.8365 23.616C65.9925 23.736 66.0705 23.934 66.0705 24.21V24.498C66.0705 24.786 65.9925 24.99 65.8365 25.11C65.6805 25.23 65.4345 25.29 65.0985 25.29ZM73.2266 26.352C75.3866 26.352 76.4666 27.648 76.4666 30.24V35.136C76.4666 35.376 76.3826 35.58 76.2146 35.748C76.0586 35.916 75.8546 36 75.6026 36C75.3626 36 75.1586 35.916 74.9906 35.748C74.8346 35.58 74.7566 35.376 74.7566 35.136V30.258C74.7566 29.55 74.5946 28.986 74.2706 28.566C73.9466 28.146 73.4186 27.936 72.6866 27.936C72.2066 27.936 71.7686 28.044 71.3726 28.26C70.9886 28.464 70.6826 28.746 70.4546 29.106C70.2386 29.454 70.1306 29.838 70.1306 30.258V35.136C70.1306 35.376 70.0466 35.58 69.8786 35.748C69.7226 35.916 69.5186 36 69.2666 36C69.0146 36 68.8106 35.922 68.6546 35.766C68.4986 35.598 68.4206 35.388 68.4206 35.136V27.432C68.4206 27.192 68.4986 26.988 68.6546 26.82C68.8226 26.652 69.0266 26.568 69.2666 26.568C69.5186 26.568 69.7226 26.652 69.8786 26.82C70.0466 26.988 70.1306 27.192 70.1306 27.432V28.062C70.4426 27.582 70.8746 27.18 71.4266 26.856C71.9906 26.52 72.5906 26.352 73.2266 26.352ZM31.476 47.138C31.764 47.294 31.908 47.534 31.908 47.858C31.908 48.074 31.836 48.272 31.692 48.452C31.548 48.644 31.35 48.74 31.098 48.74C30.93 48.74 30.768 48.698 30.612 48.614C29.868 48.194 29.064 47.984 28.2 47.984C27.3 47.984 26.502 48.182 25.806 48.578C25.122 48.974 24.588 49.532 24.204 50.252C23.82 50.96 23.628 51.776 23.628 52.7C23.628 53.696 23.826 54.554 24.222 55.274C24.618 55.994 25.164 56.546 25.86 56.93C26.556 57.302 27.336 57.488 28.2 57.488C29.088 57.488 29.892 57.272 30.612 56.84C30.756 56.768 30.912 56.732 31.08 56.732C31.344 56.732 31.554 56.834 31.71 57.038C31.854 57.218 31.926 57.41 31.926 57.614C31.926 57.758 31.884 57.896 31.8 58.028C31.728 58.148 31.626 58.244 31.494 58.316C31.026 58.58 30.498 58.79 29.91 58.946C29.334 59.102 28.764 59.18 28.2 59.18C27.036 59.18 25.962 58.922 24.978 58.406C24.006 57.89 23.226 57.14 22.638 56.156C22.062 55.172 21.774 54.02 21.774 52.7C21.774 51.488 22.05 50.396 22.602 49.424C23.166 48.44 23.934 47.672 24.906 47.12C25.89 46.556 26.988 46.274 28.2 46.274C29.364 46.274 30.456 46.562 31.476 47.138ZM41.4065 49.442C41.6585 49.442 41.8625 49.526 42.0185 49.694C42.1865 49.85 42.2705 50.06 42.2705 50.324V58.136C42.2705 58.376 42.1865 58.58 42.0185 58.748C41.8625 58.916 41.6585 59 41.4065 59C41.1545 59 40.9505 58.922 40.7945 58.766C40.6385 58.598 40.5605 58.388 40.5605 58.136V57.668C40.2485 58.088 39.8225 58.448 39.2825 58.748C38.7425 59.036 38.1605 59.18 37.5365 59.18C36.7205 59.18 35.9765 58.97 35.3045 58.55C34.6445 58.13 34.1225 57.548 33.7385 56.804C33.3665 56.048 33.1805 55.202 33.1805 54.266C33.1805 53.33 33.3665 52.49 33.7385 51.746C34.1225 50.99 34.6445 50.402 35.3045 49.982C35.9645 49.562 36.6905 49.352 37.4825 49.352C38.1185 49.352 38.7065 49.484 39.2465 49.748C39.7985 50.012 40.2365 50.348 40.5605 50.756V50.324C40.5605 50.072 40.6385 49.862 40.7945 49.694C40.9505 49.526 41.1545 49.442 41.4065 49.442ZM37.7345 57.596C38.2985 57.596 38.7965 57.452 39.2285 57.164C39.6725 56.876 40.0145 56.48 40.2545 55.976C40.5065 55.472 40.6325 54.902 40.6325 54.266C40.6325 53.642 40.5065 53.078 40.2545 52.574C40.0145 52.07 39.6725 51.674 39.2285 51.386C38.7965 51.086 38.2985 50.936 37.7345 50.936C37.1705 50.936 36.6665 51.08 36.2225 51.368C35.7905 51.656 35.4485 52.052 35.1965 52.556C34.9565 53.06 34.8365 53.63 34.8365 54.266C34.8365 54.902 34.9565 55.472 35.1965 55.976C35.4485 56.48 35.7905 56.876 36.2225 57.164C36.6665 57.452 37.1705 57.596 37.7345 57.596ZM49.5112 49.352C49.8232 49.352 50.0932 49.436 50.3212 49.604C50.5492 49.76 50.6632 49.958 50.6632 50.198C50.6632 50.486 50.5852 50.708 50.4292 50.864C50.2852 51.008 50.1052 51.08 49.8892 51.08C49.7812 51.08 49.6192 51.044 49.4032 50.972C49.1512 50.888 48.9532 50.846 48.8092 50.846C48.4372 50.846 48.0712 50.978 47.7112 51.242C47.3632 51.494 47.0752 51.848 46.8472 52.304C46.6312 52.748 46.5232 53.246 46.5232 53.798V58.136C46.5232 58.376 46.4392 58.58 46.2712 58.748C46.1152 58.916 45.9112 59 45.6592 59C45.4072 59 45.2032 58.922 45.0472 58.766C44.8912 58.598 44.8132 58.388 44.8132 58.136V50.432C44.8132 50.192 44.8912 49.988 45.0472 49.82C45.2152 49.652 45.4192 49.568 45.6592 49.568C45.9112 49.568 46.1152 49.652 46.2712 49.82C46.4392 49.988 46.5232 50.192 46.5232 50.432V51.35C46.7872 50.762 47.1832 50.288 47.7112 49.928C48.2392 49.556 48.8392 49.364 49.5112 49.352ZM32.088 80.56C32.208 80.644 32.304 80.752 32.376 80.884C32.448 81.004 32.484 81.13 32.484 81.262C32.484 81.514 32.4 81.7 32.232 81.82C32.076 81.94 31.884 82 31.656 82C31.428 82 31.236 81.952 31.08 81.856C30.72 81.652 30.426 81.322 30.198 80.866C29.97 80.41 29.856 79.738 29.856 78.85C29.856 78.25 29.676 77.806 29.316 77.518C28.956 77.23 28.488 77.086 27.912 77.086H24.276V81.136C24.276 81.388 24.204 81.598 24.06 81.766C23.916 81.922 23.73 82 23.502 82C23.226 82 22.986 81.916 22.782 81.748C22.59 81.58 22.494 81.376 22.494 81.136V70.264C22.494 70.024 22.578 69.82 22.746 69.652C22.914 69.484 23.118 69.4 23.358 69.4H28.416C29.064 69.4 29.658 69.562 30.198 69.886C30.738 70.198 31.17 70.636 31.494 71.2C31.818 71.752 31.98 72.376 31.98 73.072C31.98 73.744 31.8 74.374 31.44 74.962C31.08 75.538 30.618 75.97 30.054 76.258C30.498 76.486 30.846 76.804 31.098 77.212C31.362 77.62 31.506 78.094 31.53 78.634C31.578 79.318 31.632 79.786 31.692 80.038C31.752 80.278 31.884 80.452 32.088 80.56ZM28.38 75.592C28.68 75.568 28.962 75.448 29.226 75.232C29.502 75.016 29.724 74.728 29.892 74.368C30.06 73.996 30.144 73.582 30.144 73.126C30.144 72.55 29.964 72.064 29.604 71.668C29.256 71.26 28.83 71.056 28.326 71.056H24.276V75.592H28.38ZM42.7045 76.924C42.6925 77.14 42.6025 77.326 42.4345 77.482C42.2665 77.626 42.0685 77.698 41.8405 77.698H35.5045C35.5885 78.574 35.9185 79.276 36.4945 79.804C37.0825 80.332 37.7965 80.596 38.6365 80.596C39.2125 80.596 39.6805 80.512 40.0405 80.344C40.4005 80.176 40.7185 79.96 40.9945 79.696C41.1745 79.588 41.3485 79.534 41.5165 79.534C41.7205 79.534 41.8885 79.606 42.0205 79.75C42.1645 79.894 42.2365 80.062 42.2365 80.254C42.2365 80.506 42.1165 80.734 41.8765 80.938C41.5285 81.286 41.0665 81.58 40.4905 81.82C39.9145 82.06 39.3265 82.18 38.7265 82.18C37.7545 82.18 36.8965 81.976 36.1525 81.568C35.4205 81.16 34.8505 80.59 34.4425 79.858C34.0465 79.126 33.8485 78.298 33.8485 77.374C33.8485 76.366 34.0525 75.484 34.4605 74.728C34.8805 73.96 35.4265 73.372 36.0985 72.964C36.7825 72.556 37.5145 72.352 38.2945 72.352C39.0625 72.352 39.7825 72.55 40.4545 72.946C41.1265 73.342 41.6665 73.888 42.0745 74.584C42.4825 75.28 42.6925 76.06 42.7045 76.924ZM38.2945 73.936C37.6225 73.936 37.0405 74.128 36.5485 74.512C36.0565 74.884 35.7325 75.466 35.5765 76.258H40.8865V76.114C40.8265 75.478 40.5385 74.956 40.0225 74.548C39.5185 74.14 38.9425 73.936 38.2945 73.936ZM49.4961 72.352C51.6561 72.352 52.7361 73.648 52.7361 76.24V81.136C52.7361 81.376 52.6521 81.58 52.4841 81.748C52.3281 81.916 52.1241 82 51.8721 82C51.6321 82 51.4281 81.916 51.2601 81.748C51.1041 81.58 51.0261 81.376 51.0261 81.136V76.258C51.0261 75.55 50.8641 74.986 50.5401 74.566C50.2161 74.146 49.6881 73.936 48.9561 73.936C48.4761 73.936 48.0381 74.044 47.6421 74.26C47.2581 74.464 46.9521 74.746 46.7241 75.106C46.5081 75.454 46.4001 75.838 46.4001 76.258V81.136C46.4001 81.376 46.3161 81.58 46.1481 81.748C45.9921 81.916 45.7881 82 45.5361 82C45.2841 82 45.0801 81.922 44.9241 81.766C44.7681 81.598 44.6901 81.388 44.6901 81.136V73.432C44.6901 73.192 44.7681 72.988 44.9241 72.82C45.0921 72.652 45.2961 72.568 45.5361 72.568C45.7881 72.568 45.9921 72.652 46.1481 72.82C46.3161 72.988 46.4001 73.192 46.4001 73.432V74.062C46.7121 73.582 47.1441 73.18 47.6961 72.856C48.2601 72.52 48.8601 72.352 49.4961 72.352ZM57.8457 74.242V79.606C57.8457 80.206 58.1157 80.506 58.6557 80.506C58.7397 80.506 58.8537 80.488 58.9977 80.452C59.1417 80.404 59.2557 80.38 59.3397 80.38C59.4957 80.38 59.6277 80.446 59.7357 80.578C59.8437 80.71 59.8977 80.878 59.8977 81.082C59.8977 81.334 59.7537 81.55 59.4657 81.73C59.1777 81.91 58.8537 82 58.4937 82C58.0977 82 57.7317 81.958 57.3957 81.874C57.0717 81.79 56.7777 81.58 56.5137 81.244C56.2617 80.896 56.1357 80.374 56.1357 79.678V74.242H55.0917C54.8637 74.242 54.6717 74.17 54.5157 74.026C54.3717 73.87 54.2997 73.678 54.2997 73.45C54.2997 73.222 54.3717 73.036 54.5157 72.892C54.6717 72.748 54.8637 72.676 55.0917 72.676H56.1357V71.164C56.1357 70.924 56.2137 70.72 56.3697 70.552C56.5377 70.384 56.7477 70.3 56.9997 70.3C57.2397 70.3 57.4377 70.384 57.5937 70.552C57.7617 70.72 57.8457 70.924 57.8457 71.164V72.676H59.3397C59.5677 72.676 59.7537 72.754 59.8977 72.91C60.0537 73.054 60.1317 73.24 60.1317 73.468C60.1317 73.696 60.0537 73.882 59.8977 74.026C59.7537 74.17 59.5677 74.242 59.3397 74.242H57.8457ZM69.7776 72.442C70.0296 72.442 70.2336 72.526 70.3896 72.694C70.5576 72.85 70.6416 73.06 70.6416 73.324V81.136C70.6416 81.376 70.5576 81.58 70.3896 81.748C70.2336 81.916 70.0296 82 69.7776 82C69.5256 82 69.3216 81.922 69.1656 81.766C69.0096 81.598 68.9316 81.388 68.9316 81.136V80.668C68.6196 81.088 68.1936 81.448 67.6536 81.748C67.1136 82.036 66.5316 82.18 65.9076 82.18C65.0916 82.18 64.3476 81.97 63.6756 81.55C63.0156 81.13 62.4936 80.548 62.1096 79.804C61.7376 79.048 61.5516 78.202 61.5516 77.266C61.5516 76.33 61.7376 75.49 62.1096 74.746C62.4936 73.99 63.0156 73.402 63.6756 72.982C64.3356 72.562 65.0616 72.352 65.8536 72.352C66.4896 72.352 67.0776 72.484 67.6176 72.748C68.1696 73.012 68.6076 73.348 68.9316 73.756V73.324C68.9316 73.072 69.0096 72.862 69.1656 72.694C69.3216 72.526 69.5256 72.442 69.7776 72.442ZM66.1056 80.596C66.6696 80.596 67.1676 80.452 67.5996 80.164C68.0436 79.876 68.3856 79.48 68.6256 78.976C68.8776 78.472 69.0036 77.902 69.0036 77.266C69.0036 76.642 68.8776 76.078 68.6256 75.574C68.3856 75.07 68.0436 74.674 67.5996 74.386C67.1676 74.086 66.6696 73.936 66.1056 73.936C65.5416 73.936 65.0376 74.08 64.5936 74.368C64.1616 74.656 63.8196 75.052 63.5676 75.556C63.3276 76.06 63.2076 76.63 63.2076 77.266C63.2076 77.902 63.3276 78.472 63.5676 78.976C63.8196 79.48 64.1616 79.876 64.5936 80.164C65.0376 80.452 65.5416 80.596 66.1056 80.596ZM75.0383 81.136C75.0383 81.376 74.9543 81.58 74.7863 81.748C74.6183 81.916 74.4143 82 74.1743 82C73.9343 82 73.7303 81.916 73.5623 81.748C73.4063 81.58 73.3283 81.376 73.3283 81.136V69.544C73.3283 69.304 73.4123 69.1 73.5803 68.932C73.7483 68.764 73.9523 68.68 74.1923 68.68C74.4323 68.68 74.6303 68.764 74.7863 68.932C74.9543 69.1 75.0383 69.304 75.0383 69.544V81.136ZM77.197 80.524C77.089 80.356 77.035 80.194 77.035 80.038C77.035 79.798 77.161 79.594 77.413 79.426C77.533 79.342 77.671 79.3 77.827 79.3C78.043 79.3 78.241 79.39 78.421 79.57C78.781 79.978 79.165 80.284 79.573 80.488C79.993 80.692 80.491 80.794 81.067 80.794C81.523 80.782 81.925 80.68 82.273 80.488C82.621 80.284 82.795 79.96 82.795 79.516C82.795 79.108 82.615 78.796 82.255 78.58C81.907 78.364 81.391 78.166 80.707 77.986C80.035 77.806 79.477 77.62 79.033 77.428C78.589 77.224 78.211 76.936 77.899 76.564C77.599 76.18 77.449 75.682 77.449 75.07C77.449 74.53 77.599 74.056 77.899 73.648C78.211 73.24 78.619 72.922 79.123 72.694C79.639 72.466 80.197 72.352 80.797 72.352C81.373 72.352 81.943 72.46 82.507 72.676C83.083 72.892 83.551 73.222 83.911 73.666C84.055 73.834 84.127 74.008 84.127 74.188C84.127 74.38 84.031 74.566 83.839 74.746C83.719 74.854 83.569 74.908 83.389 74.908C83.173 74.908 82.999 74.836 82.867 74.692C82.615 74.404 82.303 74.182 81.931 74.026C81.571 73.87 81.169 73.792 80.725 73.792C80.269 73.792 79.879 73.888 79.555 74.08C79.243 74.26 79.087 74.572 79.087 75.016C79.099 75.436 79.279 75.748 79.627 75.952C79.987 76.156 80.533 76.354 81.265 76.546C81.901 76.714 82.429 76.894 82.849 77.086C83.269 77.278 83.623 77.566 83.911 77.95C84.199 78.322 84.343 78.814 84.343 79.426C84.343 79.99 84.181 80.482 83.857 80.902C83.533 81.31 83.107 81.628 82.579 81.856C82.063 82.072 81.511 82.18 80.923 82.18C80.167 82.18 79.465 82.048 78.817 81.784C78.181 81.52 77.641 81.1 77.197 80.524Z" fill="black"/>
<path d="M79.4838 48.25H76.9112L76.1963 46.3C75.4615 44.2952 73.7079 43 71.7284 43H66.2713C64.2922 43 62.5382 44.2952 61.803 46.3L61.088 48.25H58.5159C58.1803 48.25 57.9341 48.5941 58.0157 48.9489L58.2736 50.0739C58.3307 50.3242 58.537 50.5 58.7737 50.5H59.6361C59.059 51.0498 58.6873 51.8491 58.6873 52.75V55C58.6873 55.7556 58.952 56.4377 59.3748 56.9655V59.5C59.3748 60.3283 59.9906 61 60.7498 61H62.1248C62.8841 61 63.4998 60.3283 63.4998 59.5V58H74.4998V59.5C74.4998 60.3283 75.1156 61 75.8748 61H77.2498C78.0091 61 78.6248 60.3283 78.6248 59.5V56.9655C79.0477 56.4381 79.3123 55.7561 79.3123 55V52.75C79.3123 51.8491 78.9407 51.0498 78.364 50.5H79.2264C79.4632 50.5 79.6694 50.3242 79.7266 50.0739L79.9844 48.9489C80.0656 48.5941 79.8194 48.25 79.4838 48.25ZM64.3562 47.4142C64.6695 46.5602 65.4279 46 66.2713 46H71.7284C72.5718 46 73.3302 46.5602 73.6435 47.4142L74.4998 49.75H63.4998L64.3562 47.4142ZM62.1248 54.9906C61.2998 54.9906 60.7498 54.3925 60.7498 53.4953C60.7498 52.5981 61.2998 52 62.1248 52C62.9498 52 64.1873 53.3458 64.1873 54.243C64.1873 55.1402 62.9498 54.9906 62.1248 54.9906ZM75.8748 54.9906C75.0498 54.9906 73.8123 55.1402 73.8123 54.243C73.8123 53.3458 75.0498 52 75.8748 52C76.6998 52 77.2498 52.5981 77.2498 53.4953C77.2498 54.3925 76.6998 54.9906 75.8748 54.9906V54.9906Z" fill="black"/>
</svg>
